<svg id="Capa_1" enable-background="new 0 0 512 512" height="512" viewBox="0 0 512 512" width="512" xmlns="http://www.w3.org/2000/svg"><g><g><g><path d="m408.787 158.401c-1.367-2.281-4.879-1.138-4.603 1.507 1.911 18.279-.916 37.293-9.165 55.196-2.717 5.898-5.912 11.423-9.514 16.556-1.612 2.298-5.189 1.294-5.35-1.509-5.422-94.612-56.443-177.664-132.506-229.608-2.634-1.799-5.915 1.218-4.286 3.96 11.322 19.059 17.825 41.316 17.825 65.093 0 18.509-3.946 36.093-11.033 51.968-.853 1.911-3.396 2.34-4.82.805-29.554-31.855-67.328-55.563-109.296-69.067-2.522-.811-4.387 2.389-2.444 4.19 13.472 12.484 23.87 28.639 29.463 47.528 12.491 42.185-2.534 85.978-34.626 112.141-16.522 13.47-27.851 32.412-30.589 53.553-1.818 14.037-.832 28.665 3.379 43.115 1.847 6.337 4.245 12.372 7.127 18.069.521 1.029.567 2.224.123 3.289-4.592 11.015-7.717 22.874-9.08 35.378-7.49 68.717 41.784 131.358 110.323 140.34 36.492 4.782 71.415-6.376 97.762-28.092.67-.553 1.502-.863 2.371-.889 22.516-.66 44.329-8.516 62.085-22.339 0 0 28.626-19.781 51.521-69.474 35.23-76.467 26.897-162.349-14.667-231.71z" fill="#ffc50d"/></g><g><g><path d="m408.787 158.401c-1.367-2.281-4.879-1.138-4.603 1.507 1.793 17.152-.586 34.951-7.701 51.871 14.397 53.776 11.054 111.801-13.563 165.232-22.895 49.693-51.521 69.474-51.521 69.474-17.755 13.822-39.569 21.678-62.085 22.339-.868.026-1.7.336-2.371.889-26.348 21.716-61.27 32.874-97.762 28.092-.591-.077-1.177-.169-1.765-.254 12.884 6.738 27.117 11.365 42.299 13.354 36.492 4.782 71.415-6.376 97.762-28.092.671-.553 1.502-.863 2.371-.889 22.516-.66 44.33-8.516 62.085-22.339 0 0 28.626-19.781 51.521-69.474 35.23-76.467 26.897-162.349-14.667-231.71z" fill="#fa9801"/></g></g></g><g><g><path d="m137.247 314.15 73.856-58.61c7.524-5.971 16.848-9.221 26.454-9.221h84.831c8.803 0 17.389 2.73 24.576 7.813l84.847 60.018z" fill="#766e6e"/></g><g><path d="m346.963 254.133c-7.187-5.084-15.773-7.813-24.576-7.813h-58.987c8.803 0 17.389 2.73 24.576 7.813l84.847 60.018h58.987z" fill="#5b5353"/></g><g><path d="m455.387 321.646h-339.645l90.702-71.977c8.813-6.994 19.862-10.846 31.113-10.846h84.831c10.41 0 20.406 3.178 28.905 9.19zm-296.635-14.992h249.48l-65.598-46.401c-5.954-4.212-12.955-6.438-20.247-6.438h-84.831c-7.881 0-15.621 2.698-21.794 7.598z" fill="#9bd069"/></g><g><path d="m492.117 430.347h-472.234c-6.671 0-12.078-5.408-12.078-12.078v-66.969c0-12.735 8.575-23.874 20.887-27.131l78.278-20.968c9.843-2.637 19.989-3.972 30.179-3.972h350.22c9.294 0 16.827 7.534 16.827 16.827v102.213c0 6.67-5.408 12.078-12.079 12.078z" fill="#9bd069"/></g><g><path d="m504.196 358.504h-36.582c-8.137 0-14.733-6.596-14.733-14.733v-1.392c0-8.137 6.596-14.733 14.733-14.733h36.582z" fill="#ff6930"/></g><g><path d="m247.098 344.183h-15.708c-4.14 0-7.496-3.356-7.496-7.496s3.356-7.496 7.496-7.496h15.708c4.14 0 7.496 3.356 7.496 7.496s-3.355 7.496-7.496 7.496z" fill="#f9f6f6"/></g><g><path d="m487.368 299.228h-16.335v93.419c0 6.671-5.408 12.078-12.078 12.078h-451.151v13.543c0 6.671 5.408 12.078 12.078 12.078h472.235c6.671 0 12.078-5.408 12.078-12.078v-102.212c.001-9.294-7.533-16.828-16.827-16.828z" fill="#69af81"/></g><g><path d="m471.034 327.647h33.162v30.857h-33.162z" fill="#ff5426"/></g><g><path d="m125.002 364.459c31.521 0 57.075 25.553 57.075 57.075v6.21c0 1.438-1.166 2.604-2.604 2.604h-108.942c-1.438 0-2.604-1.166-2.604-2.604v-6.21c.001-31.522 25.554-57.075 57.075-57.075z" fill="#766e6e"/></g><g><path d="m125.002 364.459c-4.906 0-9.667.62-14.21 1.784 24.646 6.315 42.865 28.675 42.865 55.29v6.21c0 1.438-1.166 2.604-2.604 2.604h28.42c1.438 0 2.604-1.166 2.604-2.604v-6.21c0-31.521-25.553-57.074-57.075-57.074z" fill="#5b5353"/></g><g><circle cx="125.002" cy="427.658" fill="#c9beb9" r="38.393"/></g><g><path d="m137.995 391.524c4.416 6.253 7.019 13.878 7.019 22.116 0 21.204-17.189 38.393-38.393 38.393-4.561 0-8.934-.8-12.993-2.259 6.951 9.843 18.407 16.277 31.373 16.277 21.204 0 38.393-17.189 38.393-38.393.001-16.643-10.59-30.808-25.399-36.134z" fill="#9e9595"/></g><g><circle cx="125.002" cy="427.658" fill="#766e6e" r="13.514"/></g><g><path d="m129.903 415.074c.593 1.521.93 3.17.93 4.9 0 7.464-6.051 13.514-13.514 13.514-1.731 0-3.38-.337-4.9-.93 1.964 5.038 6.851 8.614 12.584 8.614 7.464 0 13.514-6.05 13.514-13.514 0-5.733-3.576-10.62-8.614-12.584z" fill="#5b5353"/></g><g><circle cx="38.363" cy="364.272" fill="#f9f6f6" r="14.686"/></g><g><path d="m42.179 350.105c.262 1.097.415 2.236.415 3.414 0 8.111-6.575 14.686-14.686 14.686-1.322 0-2.597-.191-3.816-.519 1.541 6.461 7.337 11.272 14.27 11.272 8.111 0 14.686-6.575 14.686-14.686.001-6.789-4.612-12.485-10.869-14.167z" fill="#eedfda"/></g><g><path d="m274.656 246.319h14.992v59.822h-14.992z" fill="#9bd069"/></g><g><path d="m305.364 207.984c-2.026-.809-3.768 1.688-2.273 3.276 10.38 11.029 18.022 24.906 21.552 40.762 7.878 35.38-6.952 70.523-34.811 90.21-14.398 10.175-24.796 25.194-28.215 42.49-2.248 11.373-2.25 23.379.376 35.421 10.222 46.862 56.99 76.869 103.845 66.614 33.086-7.242 57.61-32.361 65.702-62.966 0 0 8.889-27.254-.908-71.253-15.075-67.706-63.404-119.838-125.268-144.554z" fill="#ffc50d"/></g><g><path d="m317.885 353.69c-.766-.547-1.753.32-1.289 1.139 3.217 5.689 4.992 12.29 4.842 19.298-.335 15.637-10.163 28.841-23.862 34.228-7.08 2.784-12.982 8.01-16.192 14.907-2.111 4.535-3.346 9.567-3.483 14.883-.533 20.69 15.982 38.073 36.673 38.591 14.611.366 27.47-7.64 34.007-19.635 0 0 6.527-10.508 6.944-29.955.642-29.923-14.254-56.738-37.64-73.456z" fill="#ffe541"/></g><g><path d="m430.633 352.538c-15.075-67.706-63.404-119.837-125.269-144.554-2.026-.809-3.768 1.688-2.273 3.276 10.38 11.029 18.022 24.906 21.552 40.762 1.169 5.252 1.827 10.497 2.027 15.689 29.59 27.05 51.267 62.619 60.488 104.031 9.797 43.999.908 71.253.908 71.253-4.64 17.549-14.69 33.285-28.651 44.89 2.139-.303 4.281-.659 6.424-1.128 33.086-7.242 57.61-32.361 65.702-62.966-.001 0 8.889-27.255-.908-71.253z" fill="#fa9801"/></g></g></g></svg>