<svg xmlns="http://www.w3.org/2000/svg" viewBox="0 0 226.78 49.82"><defs><style>.cls-1{fill:#00899a;}.cls-2{fill:#fff;}.cls-3{fill:#575756;}</style></defs><title>Asset 1</title><g id="Layer_2" data-name="Layer 2"><g id="Calque_1" data-name="Calque 1"><rect class="cls-1" width="49.82" height="49.82"/><path class="cls-2" d="M45.36,46.24q-1-.94-2.75-4.9L25.37,1.45h0a.74.74,0,0,0-1.36,0h0L9.57,36Q6.33,43.74,5,45.48a5.59,5.59,0,0,1-4,2v1.3H14.71v-1.3a11.09,11.09,0,0,1-3.31-.62A2.49,2.49,0,0,1,10,44.44,8,8,0,0,1,10.51,42q.53-1.52,3.22-8.43l1.18-2.85,8-19.38,7.93,19.38L32,33.6l2.77,6.77a19.5,19.5,0,0,1,.94,2.73A8.51,8.51,0,0,1,36,44.92c0,1-.29,1.67-.88,1.93a15.42,15.42,0,0,1-3.91.67v1.3H48.82v-1.3a6.5,6.5,0,0,1-3.46-1.28"/><path class="cls-2" d="M49.82,0h-.57A45.1,45.1,0,0,1,33.74,26.49C39.93,19.16,43.46,10.08,44.86,0h-.58C42.71,11.14,38.35,21,31,28.66A55.86,55.86,0,0,1,0,39.26v.59a57,57,0,0,0,28.5-8.76A52.19,52.19,0,0,1,0,44.21v.58A52.72,52.72,0,0,0,31.38,29.11,46.19,46.19,0,0,0,49.82.14Z"/><path class="cls-3" d="M71.1,30.19H52.4v-.88H53a1.75,1.75,0,0,0,1.33-.65,5.22,5.22,0,0,0,.91-1.44,3,3,0,0,0,.19-.62,3.21,3.21,0,0,0,.06-.59V4.3a2.28,2.28,0,0,0-.7-1.67,2.26,2.26,0,0,0-1.66-.71h-.62V1H61.9v.92h-.62a2.3,2.3,0,0,0-1.66.69,2.27,2.27,0,0,0-.7,1.69V26.23a2.77,2.77,0,0,0,.81,1.69,2.25,2.25,0,0,0,1.68.77l5.56,0a3.82,3.82,0,0,0,2.62-1.08,7.09,7.09,0,0,0,1.78-2.37,2.66,2.66,0,0,0,.21-.44,3.16,3.16,0,0,0,.12-.43l.83.2Z"/><path class="cls-3" d="M94.7,30.19H76v-.88h.62a1.75,1.75,0,0,0,1.33-.65,5.18,5.18,0,0,0,.91-1.44,3.14,3.14,0,0,0,.19-.62,3.21,3.21,0,0,0,.06-.59V4.3a2.29,2.29,0,0,0-.7-1.67,2.26,2.26,0,0,0-1.66-.71h-.62V1H85.5v.92h-.62a2.28,2.28,0,0,0-1.66.69,2.26,2.26,0,0,0-.71,1.69V26.23a2.77,2.77,0,0,0,.81,1.69,2.25,2.25,0,0,0,1.68.77l5.56,0a3.82,3.82,0,0,0,2.62-1.08A7.09,7.09,0,0,0,95,25.27a2.44,2.44,0,0,0,.21-.44,2.57,2.57,0,0,0,.12-.43l.83.2Z"/><path class="cls-3" d="M104.35,30.19H99.6l0-.88h.58a1.92,1.92,0,0,0,1.39-.67,4.22,4.22,0,0,0,.93-1.46c.05-.17.1-.34.14-.52a2.19,2.19,0,0,0,.07-.52V4.3A2.3,2.3,0,0,0,102,2.63a2.26,2.26,0,0,0-1.66-.71h-.62V1H109v.92h-.62a2.27,2.27,0,0,0-1.66.71A2.29,2.29,0,0,0,106,4.3V26.14a2.35,2.35,0,0,0,.06.52,5.27,5.27,0,0,0,.14.52,4.27,4.27,0,0,0,.91,1.46,1.89,1.89,0,0,0,1.41.67h.58v.88Z"/><path class="cls-3" d="M124.94,4.88l-3.69,13.39h8Zm5.56,25.31v-.88h.62a1.74,1.74,0,0,0,.79-.19,1.55,1.55,0,0,0,.58-.48.92.92,0,0,0,.19-.27.78.78,0,0,0,.06-.31.37.37,0,0,0,0-.15v-.15a1.41,1.41,0,0,0,0-.25,2,2,0,0,0-.06-.25L130,20.18h-9.37L118.64,26a2,2,0,0,0-.06.23,1,1,0,0,0,0,.23.74.74,0,0,0,0,.23v.23a2.45,2.45,0,0,0,.39,1.33,2.28,2.28,0,0,0,1.18.92l.56.1a3.23,3.23,0,0,0,.64.07v.88h-8.71v-.88h.62a1.93,1.93,0,0,0,.46-.07,2.39,2.39,0,0,0,.5-.19,5.27,5.27,0,0,0,1.16-.81,6.76,6.76,0,0,0,1-1.1,4.78,4.78,0,0,0,.35-.58,4.18,4.18,0,0,0,.23-.55l7.55-25h2.65l8.71,25c.08.17.18.36.29.57a3.54,3.54,0,0,0,.42.6,9.89,9.89,0,0,0,.93,1,6,6,0,0,0,1.1.81l.58.23a1.76,1.76,0,0,0,.58.1h.62v.88H130.5Z"/><path class="cls-3" d="M173.92,1.92a2,2,0,0,0-1.43.67A4.14,4.14,0,0,0,171.56,4c-.05.16-.1.33-.14.5a2,2,0,0,0-.07.5V30.19H170l-19.7-24.1V26.14a2.3,2.3,0,0,0,.06.52c0,.18.09.35.14.52a4.31,4.31,0,0,0,.91,1.46,1.84,1.84,0,0,0,1.37.67h1.54v.88H145.1v-.88h1a1.85,1.85,0,0,0,1.37-.67,4.33,4.33,0,0,0,.92-1.46c.05-.17.1-.34.14-.52a2.29,2.29,0,0,0,.06-.52V4.26a8.88,8.88,0,0,0-2.47-1.71,6.8,6.8,0,0,0-2.92-.62V1h7.67l18.83,23V5a3.35,3.35,0,0,0,0-.5,1.9,1.9,0,0,0-.17-.5,4.25,4.25,0,0,0-.91-1.46,1.89,1.89,0,0,0-1.41-.67h-1.49V1h9.54v.92Z"/><path class="cls-3" d="M198.13,29.1a14.51,14.51,0,0,1-4.65,1,2.74,2.74,0,0,1-.49,0h-.45A15.55,15.55,0,0,1,182.1,26a13.28,13.28,0,0,1-4.65-10.4,13.39,13.39,0,0,1,4.69-10.49A15.76,15.76,0,0,1,192.88,1a16.65,16.65,0,0,1,3,.28,14.86,14.86,0,0,1,3,.89l.26.07a1.31,1.31,0,0,0,.26,0,2,2,0,0,0,.52-.07,1.17,1.17,0,0,0,.43-.2,1.23,1.23,0,0,0,.3-.33,1.12,1.12,0,0,0,.17-.37l.91.13v7h-1a6.39,6.39,0,0,0-1.21-2.15,9.26,9.26,0,0,0-1.73-1.54,9.48,9.48,0,0,0-1.92-.91,10.34,10.34,0,0,0-2.05-.48l-.61-.07-.6,0a9.52,9.52,0,0,0-7.88,3.85,13.46,13.46,0,0,0-3,8.49v.13a13.37,13.37,0,0,0,3,8.36,9.52,9.52,0,0,0,7.84,3.8,10,10,0,0,0,5-1.26A9.27,9.27,0,0,0,201.22,23h1v3.74a15.7,15.7,0,0,1-4.09,2.38"/><path class="cls-3" d="M225.36,30.19H206.66v-.88h.62a1.85,1.85,0,0,0,1.37-.67,4.34,4.34,0,0,0,.91-1.46c.05-.17.1-.34.15-.52a2.4,2.4,0,0,0,.06-.52V4.3a2.29,2.29,0,0,0-.68-1.69,2.27,2.27,0,0,0-1.68-.69h-.62V1H225V5.71h-.91a2.8,2.8,0,0,0-.83-2,2.77,2.77,0,0,0-2-.83h-8.09v11.7h7.14a2.72,2.72,0,0,0,2-.86,2.8,2.8,0,0,0,.83-2H224v7.59h-.87a2.85,2.85,0,0,0-.83-2.06,2.71,2.71,0,0,0-2-.86h-7.14v8.94a1.88,1.88,0,0,0,0,.31,2.69,2.69,0,0,0,.06.31,3.42,3.42,0,0,0,1,1.73,2.78,2.78,0,0,0,2,.77h4.94a4.33,4.33,0,0,0,3-1.25,5.54,5.54,0,0,0,1.74-2.75l.83.2Z"/><path class="cls-3" d="M96.84,39.1h.39a.56.56,0,0,1,.44.21,1.61,1.61,0,0,1,.31.51A.66.66,0,0,1,98,40a1.23,1.23,0,0,1,0,.17v4.19a4.3,4.3,0,0,1-.76,2.55,3.08,3.08,0,0,1-4.63,0,4.31,4.31,0,0,1-.75-2.55V40.16a1.19,1.19,0,0,1,0-.17.62.62,0,0,1,.05-.17,1.55,1.55,0,0,1,.31-.51.57.57,0,0,1,.44-.21h.38v-.52H89.38v.52h.3a.6.6,0,0,1,.45.21,1.59,1.59,0,0,1,.32.51.8.8,0,0,1,0,.16,1.6,1.6,0,0,1,0,.17V45a3.19,3.19,0,0,0,1.26,2.66,5.2,5.2,0,0,0,2.74,1.11h.95a5.17,5.17,0,0,0,2.73-1.11A3.19,3.19,0,0,0,99.45,45V40.16a.74.74,0,0,1,0-.17.58.58,0,0,1,.05-.17,1.47,1.47,0,0,1,.32-.51.58.58,0,0,1,.45-.21h.32v-.52H96.84v.52Z"/><path class="cls-3" d="M114.86,39.54H116a1.93,1.93,0,0,1,1.48.62,2,2,0,0,1,.57,1.4,1.93,1.93,0,0,1-.14.73,1.87,1.87,0,0,1-.45.66,1.83,1.83,0,0,1-1,.52,8.26,8.26,0,0,1-1.22.05h-.31v-4Zm5.67,8.15a13.12,13.12,0,0,1-1.14-1.44l-.05-.08-.08-.1L119.2,46l-.07-.11-.21-.31-.19-.3c-.14-.24-.29-.47-.45-.68a2.58,2.58,0,0,0-.44-.46,3.18,3.18,0,0,0,1.23-1,2.71,2.71,0,0,0-.43-3.74,3.4,3.4,0,0,0-2.18-.8h-4.28v.53h.51a.72.72,0,0,1,.52.25.79.79,0,0,1,.21.55v7.29a1.09,1.09,0,0,1,0,.17l0,.18a1.67,1.67,0,0,1-.32.52.63.63,0,0,1-.46.22h-.31v.51H116V48.3h-.33a.58.58,0,0,1-.44-.22,1.58,1.58,0,0,1-.32-.51,1.86,1.86,0,0,1,0-.19.72.72,0,0,1,0-.17V44.39h.62l.23,0a1.65,1.65,0,0,1,1.24.73,12.28,12.28,0,0,1,1,1.56l0,.08,0,.07.06.1.06.11c.18.33.37.65.56,1a4.5,4.5,0,0,0,.61.79l0,0h2.58V48.3h-.09a1.73,1.73,0,0,1-1.3-.61"/><path class="cls-3" d="M139.87,44.16h-2.71l1.26-3.76Zm3.86,4.11-.2-.08a2.21,2.21,0,0,1-.39-.29c-.12-.12-.24-.24-.34-.36a1.33,1.33,0,0,1-.14-.21l-.1-.2-3.27-8.55h-1.12l-2.84,8.55a1.51,1.51,0,0,1-.08.19,1.43,1.43,0,0,1-.12.2,2.32,2.32,0,0,1-.36.4,2,2,0,0,1-.41.29l-.17.07-.15,0h-.33v.51h3.43V48.3H137l-.22,0-.2,0a.77.77,0,0,1-.39-.31.8.8,0,0,1-.13-.45V47.4a.35.35,0,0,1,0-.09s0,0,0-.07l0-.08.71-2.11h3.37l1,2.59s0,.06,0,.08a.55.55,0,0,1,0,.08l0,.11a.19.19,0,0,1,0,.08.32.32,0,0,1-.06.08.48.48,0,0,1-.18.15.53.53,0,0,1-.25.06h-.32v.51h3.85V48.3h-.32a.51.51,0,0,1-.19,0"/><path class="cls-3" d="M164.11,39.12h.64a.61.61,0,0,1,.46.22,1.54,1.54,0,0,1,.32.52.76.76,0,0,1,.05.16,1.25,1.25,0,0,1,0,.18v6l-6.86-7.55,0,0h-3v.53h.09a2.48,2.48,0,0,1,1,.22,3.29,3.29,0,0,1,.87.6v7.27a1.07,1.07,0,0,1,0,.18l-.05.18a1.52,1.52,0,0,1-.32.51.6.6,0,0,1-.45.22h-.46v.51h3.63v-.51h-.66a.6.6,0,0,1-.44-.22,1.52,1.52,0,0,1-.32-.51,1.56,1.56,0,0,1-.05-.18.74.74,0,0,1,0-.18V40.83l7.19,8,0,0h.63V40.2a.61.61,0,0,1,0-.17,1.18,1.18,0,0,1,.05-.18,1.49,1.49,0,0,1,.33-.52.63.63,0,0,1,.47-.22h.57v-.53h-3.74Z"/><path class="cls-3" d="M187.87,46.21a3.11,3.11,0,0,1-1.2,1.24,3.37,3.37,0,0,1-1.7.43,3.21,3.21,0,0,1-2.64-1.28,4.61,4.61,0,0,1-1-2.84h-.09l.09,0a4.63,4.63,0,0,1,1-2.89A3.22,3.22,0,0,1,185,39.54h.21l.2,0a3.5,3.5,0,0,1,.69.16,2.53,2.53,0,0,1,1.22.82,2.17,2.17,0,0,1,.4.72l0,.06h.49v-2.6l-.46-.07,0,.08a.33.33,0,0,1,0,.1.24.24,0,0,1-.09.09.3.3,0,0,1-.11,0,.53.53,0,0,1-.23,0l-.07,0a5,5,0,0,0-1-.31,5.68,5.68,0,0,0-1.06-.1A5.52,5.52,0,0,0,181.3,40a5,5,0,0,0,0,7.36,5.46,5.46,0,0,0,3.66,1.46h.16l.18,0a5,5,0,0,0,1.63-.37,5.37,5.37,0,0,0,1.43-.84l0,0V46.16h-.48Z"/><path class="cls-3" d="M207.82,46.52a2,2,0,0,1-.63,1,1.55,1.55,0,0,1-1.06.44h-1.85a1,1,0,0,1-.7-.26,1.19,1.19,0,0,1-.35-.61.72.72,0,0,1,0-.1.92.92,0,0,1,0-.11V44h2.58a.93.93,0,0,1,.7.29,1,1,0,0,1,.29.71v.09h.51v-3h-.51v.09a1,1,0,0,1-.29.69.91.91,0,0,1-.7.29h-2.58v-3.7h2.94a1,1,0,0,1,1,1v.09h.53v-2h-7v.53H201a.76.76,0,0,1,.56.23.77.77,0,0,1,.23.57v7.3a1,1,0,0,1,0,.17l-.05.18a1.54,1.54,0,0,1-.32.52.6.6,0,0,1-.44.22h-.33v.51h7.18l.57-2.25-.49-.12Z"/><path class="cls-3" d="M76.86,45.29a3,3,0,0,0-.32-.7,2.37,2.37,0,0,0-.74-.76,8,8,0,0,0-.9-.49l-.13-.06-.12-.06L74.19,43l-.48-.22a5.8,5.8,0,0,1-1.12-.7,1.22,1.22,0,0,1-.43-.63,1.77,1.77,0,0,1,0-.89,1.48,1.48,0,0,1,.6-.83,1.93,1.93,0,0,1,1-.33H74a2.08,2.08,0,0,1,1.15.46A1.76,1.76,0,0,1,75.78,41V41h.46V38.58h-.48v.21a.37.37,0,0,1-.18.09,1.66,1.66,0,0,1-.56,0l-.42-.06-.12,0h0l-.37-.06a1.72,1.72,0,0,0-.3,0,2.69,2.69,0,0,0-2.06.85,2.89,2.89,0,0,0-.82,1.88v0a2.49,2.49,0,0,0,.33,1.22,2.62,2.62,0,0,0,1.07,1l.75.39.75.37.1.05.1,0,.28.14.29.14a2.75,2.75,0,0,1,.91.73,1.54,1.54,0,0,1,.37,1,1.26,1.26,0,0,1-.13.54,1.52,1.52,0,0,1-.4.51,1.84,1.84,0,0,1-.66.38,2.51,2.51,0,0,1-.78.12h0a2.63,2.63,0,0,1-1.47-.48,1.59,1.59,0,0,1-.71-1.27v-.08h-.48v2.46l.46,0,0-.05a.42.42,0,0,1,.15-.22.4.4,0,0,1,.37-.06l.14.06a2.75,2.75,0,0,0,.62.26,4,4,0,0,0,.67.12h.26A3.47,3.47,0,0,0,75,48.61a3.06,3.06,0,0,0,1-.6,2.82,2.82,0,0,0,.67-.92A2.62,2.62,0,0,0,77,46a2.58,2.58,0,0,0-.1-.73"/><path class="cls-3" d="M226.66,45.26a2.76,2.76,0,0,0-.32-.7,2.34,2.34,0,0,0-.74-.76,8.27,8.27,0,0,0-.9-.48l-.13-.06-.12-.06L224,43l-.48-.22a5.71,5.71,0,0,1-1.12-.69,1.18,1.18,0,0,1-.43-.63,1.76,1.76,0,0,1,0-.89,1.52,1.52,0,0,1,.6-.83,2,2,0,0,1,1-.33h.14a2.15,2.15,0,0,1,1.15.46,1.75,1.75,0,0,1,.65,1.12l0,.07h.46V38.58h-.49v.21a.36.36,0,0,1-.18.09,1.62,1.62,0,0,1-.56,0l-.42-.06-.12,0h0l-.38-.06-.3,0a2.68,2.68,0,0,0-2.06.85,2.85,2.85,0,0,0-.82,1.87v0a2.44,2.44,0,0,0,.33,1.21,2.6,2.6,0,0,0,1.06,1l.75.38.76.37.1.06.1,0,.28.14.29.14a2.75,2.75,0,0,1,.91.73,1.5,1.5,0,0,1,.37,1,1.3,1.3,0,0,1-.12.53,1.51,1.51,0,0,1-.41.51,1.79,1.79,0,0,1-.66.37,2.49,2.49,0,0,1-.78.12h0a2.63,2.63,0,0,1-1.47-.47,1.59,1.59,0,0,1-.71-1.27v-.08H221v2.45l.46,0,0-.06a.47.47,0,0,1,.16-.22.41.41,0,0,1,.37-.06l.14.06a2.57,2.57,0,0,0,.62.26,3.67,3.67,0,0,0,.67.12h.27a3.54,3.54,0,0,0,1.19-.2,3.1,3.1,0,0,0,1-.6,2.7,2.7,0,0,0,.67-.91,2.6,2.6,0,0,0,.23-1.07,2.74,2.74,0,0,0-.11-.73"/><path class="cls-3" d="M58.38,45.29a3,3,0,0,0-.32-.7,2.39,2.39,0,0,0-.74-.76,8.4,8.4,0,0,0-.9-.49l-.13-.06-.12-.06L55.71,43l-.48-.22a5.73,5.73,0,0,1-1.11-.7,1.23,1.23,0,0,1-.43-.63,1.83,1.83,0,0,1,0-.89,1.51,1.51,0,0,1,.6-.83,1.94,1.94,0,0,1,1-.33h.14a2.07,2.07,0,0,1,1.15.46A1.77,1.77,0,0,1,57.3,41V41h.46V38.58h-.48v.21a.39.39,0,0,1-.18.09,1.66,1.66,0,0,1-.56,0l-.42-.06-.13,0h0l-.37-.06a1.7,1.7,0,0,0-.3,0,2.67,2.67,0,0,0-2.05.85,2.85,2.85,0,0,0-.82,1.88v0a2.49,2.49,0,0,0,.33,1.22,2.61,2.61,0,0,0,1.07,1l.75.39.76.37.1.05.1,0,.28.14.29.14a2.75,2.75,0,0,1,.91.73,1.53,1.53,0,0,1,.37,1,1.37,1.37,0,0,1-.12.54,1.57,1.57,0,0,1-.41.51,1.82,1.82,0,0,1-.65.38,2.53,2.53,0,0,1-.78.12h0a2.64,2.64,0,0,1-1.47-.48,1.6,1.6,0,0,1-.71-1.27v-.08h-.48v2.46l.46,0,0-.05a.43.43,0,0,1,.16-.22.4.4,0,0,1,.37-.06l.13.06a2.8,2.8,0,0,0,.62.26,4,4,0,0,0,.67.12h.27a3.5,3.5,0,0,0,1.19-.21,3.11,3.11,0,0,0,1-.6,2.79,2.79,0,0,0,.67-.92,2.58,2.58,0,0,0,.12-1.8"/></g></g></svg>