<svg height="512" viewBox="0 0 64 64" width="512" xmlns="http://www.w3.org/2000/svg"><g id="Line"><path d="m38 13a25 25 0 1 0 25 25 25.028 25.028 0 0 0 -25-25zm10.707 19.707-12 12a1 1 0 0 1 -1.414 0l-8-8a1 1 0 0 1 1.414-1.414l7.293 7.293 11.293-11.293a1 1 0 0 1 1.414 1.414z" fill="#c4a2fc"/><g fill="#151a6a"><path d="m34 5h-8v-1a3 3 0 0 0 -3-3h-8a3 3 0 0 0 -3 3v1h-8a3 3 0 0 0 -3 3v40a3 3 0 0 0 3 3h30a3 3 0 0 0 3-3v-40a3 3 0 0 0 -3-3zm-19-2h8a1 1 0 0 1 1 1v4a1 1 0 0 1 -1 1h-8a1 1 0 0 1 -1-1v-4a1 1 0 0 1 1-1zm20 45a1 1 0 0 1 -1 1h-30a1 1 0 0 1 -1-1v-40a1 1 0 0 1 1-1h8v1a3 3 0 0 0 3 3h8a3 3 0 0 0 3-3v-1h8a1 1 0 0 1 1 1z"/><path d="m18 7h2a1 1 0 0 0 0-2h-2a1 1 0 0 0 0 2z"/><path d="m28 17h-18a1 1 0 0 0 0 2h18a1 1 0 0 0 0-2z"/><path d="m28 27h-18a1 1 0 0 0 0 2h18a1 1 0 0 0 0-2z"/></g></g></svg>