<svg height="512pt" viewBox="-2 0 512 512.00028" width="512pt" xmlns="http://www.w3.org/2000/svg"><path d="m127.339844 404.859375v75.675781c0 17.34375-14.210938 31.457032-31.460938 31.457032h-3.210937c-17.296875 0-31.449219-14.148438-31.449219-31.457032v-75.675781c0-17.308594 14.152344-31.457031 31.449219-31.457031h3.210937c5.03125 0 9.804688 1.199218 14.035156 3.332031 10.308594 5.171875 17.425782 15.863281 17.425782 28.125zm0 0" fill="#4e5a61"/><path d="m443.195312 404.859375v75.675781c0 12.273438-7.117187 22.957032-17.425781 28.125-7.21875 3.644532-13.070312 3.332032-17.234375 3.332032-17.296875 0-31.460937-14.148438-31.460937-31.457032v-75.675781c0-17.308594 14.164062-31.457031 31.460937-31.457031h3.210938c5.03125 0 9.792968 1.199218 14.023437 3.332031 10.308594 5.171875 17.425781 15.851563 17.425781 28.125zm0 0" fill="#4e5a61"/><path d="m127.339844 404.859375v75.675781c0 12.265625-7.117188 22.957032-17.425782 28.125-10.316406-5.160156-17.433593-15.851562-17.433593-28.125v-75.675781c0-12.273437 7.117187-22.964844 17.433593-28.125 10.308594 5.171875 17.425782 15.863281 17.425782 28.125zm0 0" fill="#5f6c75"/><path d="m443.195312 404.859375v75.675781c0 12.273438-7.117187 22.957032-17.425781 28.125-10.316406-5.167968-17.433593-15.851562-17.433593-28.125v-75.675781c0-12.273437 7.117187-22.953125 17.433593-28.125 10.308594 5.171875 17.425781 15.851563 17.425781 28.125zm0 0" fill="#5f6c75"/><path d="m61.21875 462.84375h66.117188v15.628906h-66.117188zm0 0" fill="#a2abb8"/><path d="m377.078125 462.84375h66.117187v15.628906h-66.117187zm0 0" fill="#a2abb8"/><g fill="#4e5a61"><path d="m28.1875 270.933594h69.160156c13.445313 0 24.445313-11 24.445313-24.445313 0-13.445312-11-24.445312-24.445313-24.445312h-69.160156c-13.445312 0-24.445312 11-24.445312 24.445312 0 13.445313 11 24.445313 24.445312 24.445313zm0 0"/><path d="m407.0625 270.933594h69.164062c13.445313 0 24.445313-11 24.445313-24.445313 0-13.445312-11-24.445312-24.445313-24.445312h-69.164062c-13.441406 0-24.441406 11-24.441406 24.445312 0 13.445313 11 24.445313 24.441406 24.445313zm0 0"/><path d="m335.421875 117.78125h-166.238281c-27.886719 0-52.949219 17.027344-63.21875 42.953125l-48.472656 122.359375h389.617187l-48.46875-122.359375c-10.273437-25.925781-35.332031-42.953125-63.21875-42.953125zm0 0"/><path d="m483.105469 334.449219v90.816406h-460.828125v-90.816406c0-38.648438 31.335937-69.992188 69.996094-69.992188h320.835937c38.660156 0 69.996094 31.34375 69.996094 69.992188zm0 0"/></g><path d="m483.105469 334.449219v90.816406h-429.566407v-90.816406c0-38.648438 31.335938-69.992188 69.996094-69.992188h289.574219c38.660156 0 69.996094 31.34375 69.996094 69.992188zm0 0" fill="#5f6c75"/><path d="m504.414062 402.214844v19.484375c0 4.960937-4.054687 9.015625-9.015624 9.015625h-486.382813c-4.960937 0-9.015625-4.054688-9.015625-9.015625v-19.484375c0-4.960938 4.054688-9.015625 9.015625-9.015625h486.382813c4.960937 0 9.015624 4.054687 9.015624 9.015625zm0 0" fill="#909ba6"/><path d="m504.414062 402.214844v9.574218h-478.988281c-4.960937 0-9.011719-4.050781-9.011719-9.011718v-9.578125h478.984376c4.960937 0 9.015624 4.054687 9.015624 9.015625zm0 0" fill="#a2abb8"/><path d="m61.21875 462.839844h31.261719v15.632812h-31.261719zm0 0" fill="#7e8b96"/><path d="m377.074219 462.839844h31.261719v15.632812h-31.261719zm0 0" fill="#7e8b96"/><path d="m137.0625 339.535156c0 11.347656-6.597656 21.152344-16.152344 25.789063-3.785156 1.835937-8.023437 2.867187-12.503906 2.867187-15.832031 0-28.65625-12.828125-28.65625-28.65625s12.824219-28.65625 28.65625-28.65625c4.480469 0 8.71875 1.03125 12.503906 2.863282 9.554688 4.640624 16.152344 14.445312 16.152344 25.792968zm0 0" fill="#ffa90b"/><path d="m424.667969 339.535156c0 11.347656-6.597657 21.152344-16.152344 25.789063-3.785156 1.835937-8.023437 2.867187-12.507813 2.867187-15.828124 0-28.65625-12.828125-28.65625-28.65625s12.828126-28.65625 28.65625-28.65625c4.484376 0 8.722657 1.03125 12.507813 2.863282 9.554687 4.640624 16.152344 14.445312 16.152344 25.792968zm0 0" fill="#ffa90b"/><path d="m137.0625 339.535156c0 11.347656-6.597656 21.152344-16.152344 25.789063-9.558594-4.636719-16.152344-14.441407-16.152344-25.789063s6.59375-21.152344 16.152344-25.792968c9.554688 4.640624 16.152344 14.445312 16.152344 25.792968zm0 0" fill="#ffc14f"/><path d="m424.667969 339.535156c0 11.347656-6.597657 21.152344-16.152344 25.789063-9.558594-4.636719-16.152344-14.441407-16.152344-25.789063s6.59375-21.152344 16.152344-25.792968c9.554687 4.640624 16.152344 14.445312 16.152344 25.792968zm0 0" fill="#ffc14f"/><path d="m330.882812 383.820312v56.273438c0 6.335938-5.128906 11.460938-11.464843 11.460938h-134.421875c-6.335938 0-11.464844-5.125-11.464844-11.460938v-56.273438c0-6.335937 5.128906-11.460937 11.464844-11.460937h134.421875c6.335937 0 11.464843 5.125 11.464843 11.460937zm0 0" fill="#c2eaf2"/><path d="m330.882812 383.820312v37.515626h-112.542968c-6.335938 0-11.460938-5.128907-11.460938-11.464844v-37.511719h112.539063c6.335937 0 11.464843 5.125 11.464843 11.460937zm0 0" fill="#def4f8"/><path d="m377.464844 243.390625h-249.632813c-10.035156 0-16.902343-10.210937-13.214843-19.621094l13.382812-34.085937c8.261719-21.046875 25.570312-36.605469 46.359375-42.835938 6.53125-1.960937 13.421875-3.003906 20.464844-3.003906h115.648437c29.476563 0 55.96875 18.175781 66.824219 45.839844l10.035156 25.574218 3.34375 8.511719c3.699219 9.410157-3.175781 19.621094-13.210937 19.621094zm0 0" fill="#c2eaf2"/><path d="m387.332031 215.257812h-220.945312c-10.035157 0-16.902344-10.214843-13.210938-19.621093l13.378907-34.085938c2.0625-5.261719 4.699218-10.183593 7.804687-14.703125 6.53125-1.960937 13.421875-3.003906 20.464844-3.003906h115.648437c29.476563 0 55.96875 18.175781 66.824219 45.839844zm0 0" fill="#def4f8"/><path d="m499.734375 170.125-45.910156 13.648438c-8.164063 2.433593-11.371094 12.382812-6.171875 19.203124l29.179687 38.273438c7.371094 9.664062-2.277343 23.078125-13.667969 18.988281l-45.074218-16.191406c-8.023438-2.882813-16.414063 3.269531-16.179688 11.863281l.636719 23.15625.6875 25.125c.335937 12.1875-15.285156 17.308594-22.113281 7.25l-27.042969-39.84375c-4.816406-7.09375-15.1875-7.09375-19.996094 0l-27.050781 39.84375c-6.828125 10.058594-22.4375 4.9375-22.105469-7.25l1.324219-48.28125c.234375-8.59375-8.152344-14.746094-16.179688-11.863281l-45.082031 16.191406c-11.382812 4.089844-21.039062-9.324219-13.667969-18.988281l29.1875-38.273438c5.199219-6.820312 1.992188-16.769531-6.179687-19.203124l-45.898437-13.648438c-11.589844-3.441406-11.589844-20.015625 0-23.457031l45.898437-13.660157c8.171875-2.421874 11.378906-12.382812 6.179687-19.191406l-29.1875-38.273437c-7.371093-9.667969 2.285157-23.078125 13.667969-18.988281l34.566407 12.414062 10.515624 3.777344c8.027344 2.882812 16.417969-3.269532 16.179688-11.863282l-1.324219-48.285156c-.332031-12.195312 15.277344-17.316406 22.109375-7.25l27.046875 39.84375c4.808594 7.09375 15.179688 7.09375 19.996094 0l27.042969-39.84375c6.828125-10.066406 22.449218-4.945312 22.113281 7.25l-1.324219 48.285156c-.234375 8.59375 8.15625 14.746094 16.179688 11.863282l45.074218-16.191406c11.394532-4.089844 21.039063 9.324218 13.667969 18.988281l-29.179687 38.273437c-5.199219 6.808594-1.988282 16.769532 6.171875 19.191406l45.910156 13.660157c11.585937 3.441406 11.585937 20.015625 0 23.457031zm0 0" fill="#f44545"/><path d="m499.734375 170.125-45.910156 13.648438c-8.164063 2.433593-11.371094 12.382812-6.171875 19.203124l29.179687 38.273438c7.371094 9.664062-2.277343 23.078125-13.667969 18.988281l-45.074218-16.191406c-8.023438-2.882813-16.414063 3.269531-16.179688 11.863281l.636719 23.15625c-83.691406-10.84375-148.242187-80.074218-148.242187-163.855468 0-15.160157 1.804687-30.761719 5.246093-46.242188l10.519531 3.777344c8.027344 2.882812 16.414063-3.265625 16.179688-11.863282l-1.324219-48.285156c-.332031-12.195312 15.277344-17.316406 22.105469-7.25l27.050781 39.847656c4.808594 7.09375 15.179688 7.09375 19.996094 0l27.042969-39.847656c6.828125-10.066406 22.449218-4.945312 22.113281 7.25l-1.324219 48.285156c-.234375 8.59375 8.15625 14.746094 16.179688 11.863282l45.074218-16.191406c11.394532-4.089844 21.039063 9.324218 13.667969 18.988281l-29.179687 38.273437c-5.199219 6.808594-1.988282 16.769532 6.171875 19.191406l45.910156 13.660157c11.585937 3.441406 11.585937 20.015625 0 23.457031zm0 0" fill="#fb5858"/><path d="m366.078125 90.484375v91.386719c0 6.964844-3.238281 13.175781-8.289063 17.1875-3.757812 3.011718-8.527343 4.808594-13.707031 4.808594-12.148437 0-22-9.851563-22-21.996094v-91.386719c0-12.148437 9.851563-21.996094 22-21.996094 3.148438 0 6.152344.664063 8.859375 1.863281 2.507813 1.097657 4.777344 2.667969 6.6875 4.582032 3.988282 3.972656 6.449219 9.476562 6.449219 15.550781zm0 0" fill="#ffc14f"/><path d="m359.589844 235.738281c0 3.34375-1.050782 6.449219-2.867188 8.980469-1.1875 1.679688-2.71875 3.117188-4.480468 4.210938-2.363282 1.46875-5.167969 2.324218-8.15625 2.324218-8.566407 0-15.515626-6.953125-15.515626-15.515625 0-8.566406 6.949219-15.519531 15.515626-15.519531 2.988281 0 5.792968.84375 8.15625 2.324219.617187.386719 1.210937.804687 1.761718 1.273437 3.410156 2.832032 5.585938 7.125 5.585938 11.921875zm0 0" fill="#ffc14f"/><path d="m359.589844 235.738281c0 3.34375-1.050782 6.449219-2.867188 8.980469-1.1875 1.679688-2.71875 3.117188-4.480468 4.210938-4.40625-2.730469-7.34375-7.617188-7.34375-13.191407 0-5.578125 2.9375-10.464843 7.34375-13.195312.617187.386719 1.210937.804687 1.761718 1.273437 3.410156 2.832032 5.585938 7.125 5.585938 11.921875zm0 0" fill="#ffcd71"/><path d="m366.078125 90.484375v91.386719c0 6.964844-3.238281 13.175781-8.289063 17.1875-7.734374-3.402344-13.140624-11.136719-13.140624-20.132813v-91.386719c0-6.964843 3.238281-13.175781 8.292968-17.1875 2.507813 1.097657 4.777344 2.667969 6.6875 4.582032 3.988282 3.972656 6.449219 9.476562 6.449219 15.550781zm0 0" fill="#ffcd71"/></svg>