<?xml version="1.0"?>
<svg xmlns="http://www.w3.org/2000/svg" viewBox="0 0 64 64" width="512" height="512"><g id="flat"><path d="M29.707,56.707l-1.414-1.414.829-.829A3.02,3.02,0,0,0,30,52.343V33h2V52.343a4.966,4.966,0,0,1-1.464,3.535Z" style="fill:#e8594a"/><path d="M61,24H3V16a4,4,0,0,1,4-4H57a4,4,0,0,1,4,4Z" style="fill:#e8594a"/><rect x="3" y="18" width="58" height="6" style="fill:#db4a3b"/><circle cx="51" cy="24" r="6" style="fill:#663318"/><circle cx="51" cy="24" r="2" style="fill:#ededeb"/><circle cx="13" cy="24" r="6" style="fill:#663318"/><circle cx="13" cy="24" r="2" style="fill:#ededeb"/><path d="M51,12H14l8.574-7.716A5,5,0,0,1,25.919,3h16.94a4,4,0,0,1,3.328,1.781Z" style="fill:#87ced9"/><rect x="42" y="15" width="4" height="2" style="fill:#bd3a35"/><rect x="32" y="3" width="2" height="9" style="fill:#59b0bd"/><rect x="32" y="12" width="2" height="12" style="fill:#bd3a35"/><path d="M41,29h0a4,4,0,0,1-4-4V23a4,4,0,0,1,4-4h0a4,4,0,0,1,4,4v2A4,4,0,0,1,41,29Z" style="fill:#4398d1"/><path d="M44,43l-6.121,6.121A3,3,0,0,0,37,51.243V58l-2,1v2h6V52l6-6,2.622,6.117a3.988,3.988,0,0,0,1.116,1.5L56,58l-1,3h3l2-5-6-5-2-8Z" style="fill:#2f76a6"/><path d="M53.235,26H47.976a3,3,0,0,0-1.765.574L37.235,33.1A3,3,0,0,0,36,35.528V39H29v4h8a3,3,0,0,0,3-3V36l2-1,2,3v5h8V39.6a11.994,11.994,0,0,0-1.076-4.965L49,30h4l3,6v7h4V35.777a3,3,0,0,0-.378-1.457l-3.765-6.777A3,3,0,0,0,53.235,26Z" style="fill:#4398d1"/><rect x="26" y="15" width="4" height="2" style="fill:#bd3a35"/><path d="M46.188,4.781a3.993,3.993,0,0,0-.966-1L37,12H51Z" style="fill:#73bec9"/><path d="M47.976,26a3,3,0,0,0-1.765.574l-.031.022,1.557,3.088L41.774,34.04,39.709,31.3l-1.617,1.177,2.451,3.25L42,35l.606.909,6.058-4.425.787-.4L49,30h1.136L48.12,26Z" style="fill:#2f76a6"/><path d="M44,38v.57l7.249-3.107c-.1-.278-.2-.558-.325-.829L50.5,33.609l-7.332,3.142Z" style="fill:#2f76a6"/><path d="M44,41.041l8-1.127V39.6a12.026,12.026,0,0,0-.134-1.686L44,39.021Z" style="fill:#2f76a6"/><path d="M36,37.586V39H34.586l3.7,3.7A3,3,0,0,0,39.7,41.286L36.414,38H40V36H36Z" style="fill:#2f76a6"/><rect x="32" y="39" width="2" height="4" style="fill:#2f76a6"/><rect x="51" y="26" width="2" height="4" style="fill:#2f76a6"/><polygon points="56.678 29.02 53.566 31.132 54.469 32.937 57.653 30.776 56.678 29.02" style="fill:#2f76a6"/><path d="M59.622,34.32l-.738-1.328L55.4,34.8,56,36v.738l3.8-1.969A3.005,3.005,0,0,0,59.622,34.32Z" style="fill:#2f76a6"/><rect x="56" y="38" width="4" height="2" style="fill:#2f76a6"/></g></svg>
